# node obj {x=0, y=0, z=0}
o node_0_0_0

v 0.4375 0.5 -0.125
v 0.4375 0.5 0.125
v 0.5 0.5 0.125
v 0.5 0.5 -0.125
v -0.5 0.5 -0.125
v -0.5 0.5 0.125
v -0.4375 0.5 0.125
v -0.4375 0.5 -0.125
v 0.4375 0.5 0.1875
v 0.4375 0.5 0.4375
v 0.5 0.5 0.4375
v 0.5 0.5 0.1875
v -0.5 0.5 0.1875
v -0.5 0.5 0.4375
v -0.4375 0.5 0.4375
v -0.4375 0.5 0.1875
v 0.4375 -0.3125 -0.125
v 0.4375 -0.3125 0.125
v 0.5 -0.3125 0.125
v 0.5 -0.3125 -0.125
v -0.5 -0.3125 -0.125
v -0.5 -0.3125 0.125
v -0.4375 -0.3125 0.125
v -0.4375 -0.3125 -0.125
v 0.4375 -0.3125 0.1875
v 0.4375 -0.3125 0.3125
v 0.5 -0.3125 0.3125
v 0.5 -0.3125 0.1875
v -0.5 -0.3125 0.1875
v -0.5 -0.3125 0.3125
v -0.4375 -0.3125 0.3125
v -0.4375 -0.3125 0.1875
v 0.4375 -0.25 0.3125
v 0.4375 -0.25 0.375
v 0.5 -0.25 0.375
v 0.5 -0.25 0.3125
v -0.5 -0.25 0.3125
v -0.5 -0.25 0.375
v -0.4375 -0.25 0.375
v -0.4375 -0.25 0.3125
v 0.4375 -0.1875 0.375
v 0.4375 -0.1875 0.4375
v 0.5 -0.1875 0.4375
v 0.5 -0.1875 0.375
v -0.5 -0.1875 0.375
v -0.5 -0.1875 0.4375
v -0.4375 -0.1875 0.4375
v -0.4375 -0.1875 0.375
v 0.4375 0.5 0.3125
v -0.5 0.5 0.3125
v 0.4375 0.5 0.375
v -0.5 0.5 0.375
v 0.5 0.5 0.3125
v -0.4375 0.5 0.3125
v 0.5 0.5 0.375
v -0.4375 0.5 0.375

vt 0.9375 0.375
vt 0.9375 0.625
vt 1.0 0.625
vt 1.0 0.375
vt 0.0 0.375
vt 0.0 0.625
vt 0.0625 0.625
vt 0.0625 0.375
vt 0.9375 0.6875
vt 0.9375 0.9375
vt 1.0 0.9375
vt 1.0 0.6875
vt 0.0 0.6875
vt 0.0 0.9375
vt 0.0625 0.9375
vt 0.0625 0.6875
vt 0.9375 0.375
vt 0.9375 0.625
vt 1.0 0.625
vt 1.0 0.375
vt 0.0 0.375
vt 0.0 0.625
vt 0.0625 0.625
vt 0.0625 0.375
vt 0.9375 0.6875
vt 0.9375 0.8125
vt 1.0 0.8125
vt 1.0 0.6875
vt 0.0 0.6875
vt 0.0 0.8125
vt 0.0625 0.8125
vt 0.0625 0.6875
vt 0.9375 0.8125
vt 0.9375 0.875
vt 1.0 0.875
vt 1.0 0.8125
vt 0.0 0.8125
vt 0.0 0.875
vt 0.0625 0.875
vt 0.0625 0.8125
vt 0.9375 0.875
vt 0.9375 0.9375
vt 1.0 0.9375
vt 1.0 0.875
vt 0.0 0.875
vt 0.0 0.9375
vt 0.0625 0.9375
vt 0.0625 0.875
vt 0.1875 0.375
vt 0.1875 0.625
vt 1.0 0.625
vt 1.0 0.375
vt 0.1875 0.375
vt 0.1875 0.625
vt 1.0 0.625
vt 1.0 0.375
vt 0.1875 0.6875
vt 0.1875 0.8125
vt 1.0 0.8125
vt 1.0 0.6875
vt 0.1875 0.6875
vt 0.1875 0.8125
vt 1.0 0.8125
vt 1.0 0.6875
vt 0.25 0.8125
vt 0.25 0.875
vt 1.0 0.875
vt 1.0 0.8125
vt 0.25 0.8125
vt 0.25 0.875
vt 1.0 0.875
vt 1.0 0.8125
vt 0.3125 0.875
vt 0.3125 0.9375
vt 1.0 0.9375
vt 1.0 0.875
vt 0.3125 0.875
vt 0.3125 0.9375
vt 1.0 0.9375
vt 1.0 0.875
vt 0.1875 0.375
vt 0.1875 0.625
vt 1.0 0.625
vt 1.0 0.375
vt 0.1875 0.375
vt 0.1875 0.625
vt 1.0 0.625
vt 1.0 0.375
vt 0.1875 0.6875
vt 0.1875 0.8125
vt 1.0 0.8125
vt 1.0 0.6875
vt 0.1875 0.6875
vt 0.1875 0.8125
vt 1.0 0.8125
vt 1.0 0.6875
vt 0.25 0.8125
vt 0.25 0.875
vt 1.0 0.875
vt 1.0 0.8125
vt 0.25 0.8125
vt 0.25 0.875
vt 1.0 0.875
vt 1.0 0.8125
vt 0.3125 0.875
vt 0.3125 0.9375
vt 1.0 0.9375
vt 1.0 0.875
vt 0.3125 0.875
vt 0.3125 0.9375
vt 1.0 0.9375
vt 1.0 0.875
vt 0.9375 0.1875
vt 0.9375 1.0
vt 1.0 1.0
vt 1.0 0.1875
vt 0.0 0.1875
vt 0.0 1.0
vt 0.0625 1.0
vt 0.0625 0.1875
vt 0.9375 0.1875
vt 0.9375 1.0
vt 1.0 1.0
vt 1.0 0.1875
vt 0.0 0.1875
vt 0.0 1.0
vt 0.0625 1.0
vt 0.0625 0.1875
vt 0.9375 0.1875
vt 0.9375 1.0
vt 1.0 1.0
vt 1.0 0.1875
vt 0.0 0.1875
vt 0.0 1.0
vt 0.0625 1.0
vt 0.0625 0.1875
vt 0.9375 0.1875
vt 0.9375 0.25
vt 1.0 0.25
vt 1.0 0.1875
vt 0.0 0.1875
vt 0.0 0.25
vt 0.0625 0.25
vt 0.0625 0.1875
vt 0.9375 0.25
vt 0.9375 0.3125
vt 1.0 0.3125
vt 1.0 0.25
vt 0.0 0.25
vt 0.0 0.3125
vt 0.0625 0.3125
vt 0.0625 0.25
vt 0.9375 0.3125
vt 0.9375 1.0
vt 1.0 1.0
vt 1.0 0.3125
vt 0.0 0.3125
vt 0.0 1.0
vt 0.0625 1.0
vt 0.0625 0.3125

vn 0 1 0
vn 0 -1 0
vn -1 0 0
vn 1 0 0
vn 0 0 -1
vn 0 0 1

g node_0_0_0
usemtl default:glass
s 1
f 1/1/1 2/2/1 3/3/1 4/4/1
usemtl default:glass
s 2
f 5/5/1 6/6/1 7/7/1 8/8/1
usemtl default:glass
s 3
f 9/9/1 10/10/1 11/11/1 12/12/1
usemtl default:glass
s 4
f 13/13/1 14/14/1 15/15/1 16/16/1
usemtl default:glass
s 5
f 20/20/2 19/19/2 18/18/2 17/17/2
usemtl default:glass
s 6
f 24/24/2 23/23/2 22/22/2 21/21/2
usemtl default:glass
s 7
f 28/28/2 27/27/2 26/26/2 25/25/2
usemtl default:glass
s 8
f 32/32/2 31/31/2 30/30/2 29/29/2
usemtl default:glass
s 9
f 36/36/2 35/35/2 34/34/2 33/33/2
usemtl default:glass
s 10
f 40/40/2 39/39/2 38/38/2 37/37/2
usemtl default:glass
s 11
f 44/44/2 43/43/2 42/42/2 41/41/2
usemtl default:glass
s 12
f 48/48/2 47/47/2 46/46/2 45/45/2
usemtl default:glass
s 13
f 17/49/3 18/50/3 2/51/3 1/52/3
usemtl default:glass
s 14
f 21/53/3 22/54/3 6/55/3 5/56/3
usemtl default:glass
s 15
f 25/57/3 26/58/3 49/59/3 9/60/3
usemtl default:glass
s 16
f 29/61/3 30/62/3 50/63/3 13/64/3
usemtl default:glass
s 17
f 33/65/3 34/66/3 51/67/3 49/68/3
usemtl default:glass
s 18
f 37/69/3 38/70/3 52/71/3 50/72/3
usemtl default:glass
s 19
f 41/73/3 42/74/3 10/75/3 51/76/3
usemtl default:glass
s 20
f 45/77/3 46/78/3 14/79/3 52/80/3
usemtl default:glass
s 21
f 4/84/4 3/83/4 19/82/4 20/81/4
usemtl default:glass
s 22
f 8/88/4 7/87/4 23/86/4 24/85/4
usemtl default:glass
s 23
f 12/92/4 53/91/4 27/90/4 28/89/4
usemtl default:glass
s 24
f 16/96/4 54/95/4 31/94/4 32/93/4
usemtl default:glass
s 25
f 53/100/4 55/99/4 35/98/4 36/97/4
usemtl default:glass
s 26
f 54/104/4 56/103/4 39/102/4 40/101/4
usemtl default:glass
s 27
f 55/108/4 11/107/4 43/106/4 44/105/4
usemtl default:glass
s 28
f 56/112/4 15/111/4 47/110/4 48/109/4
usemtl default:glass
s 29
f 17/113/5 1/114/5 4/115/5 20/116/5
usemtl default:glass
s 30
f 21/117/5 5/118/5 8/119/5 24/120/5
usemtl default:glass
s 31
f 25/121/5 9/122/5 12/123/5 28/124/5
usemtl default:glass
s 32
f 29/125/5 13/126/5 16/127/5 32/128/5
usemtl default:glass
s 33
f 19/132/6 3/131/6 2/130/6 18/129/6
usemtl default:glass
s 34
f 23/136/6 7/135/6 6/134/6 22/133/6
usemtl default:glass
s 35
f 27/140/6 36/139/6 33/138/6 26/137/6
usemtl default:glass
s 36
f 31/144/6 40/143/6 37/142/6 30/141/6
usemtl default:glass
s 37
f 35/148/6 44/147/6 41/146/6 34/145/6
usemtl default:glass
s 38
f 39/152/6 48/151/6 45/150/6 38/149/6
usemtl default:glass
s 39
f 43/156/6 11/155/6 10/154/6 42/153/6
usemtl default:glass
s 40
f 47/160/6 15/159/6 14/158/6 46/157/6


# node obj {x=0, y=1, z=0}
o node_0_1_0

v 0.4375 0.0625 -0.125
v 0.4375 0.0625 -0.0625
v 0.5 0.0625 -0.0625
v 0.5 0.0625 -0.125
v -0.5 0.0625 -0.125
v -0.5 0.0625 -0.0625
v -0.4375 0.0625 -0.0625
v -0.4375 0.0625 -0.125
v 0.4375 0.125 -0.0625
v 0.4375 0.125 0.125
v 0.5 0.125 0.125
v 0.5 0.125 -0.0625
v -0.5 0.125 -0.0625
v -0.5 0.125 0.125
v -0.4375 0.125 0.125
v -0.4375 0.125 -0.0625
v 0.4375 0.125 0.1875
v 0.4375 0.125 0.3125
v 0.5 0.125 0.3125
v 0.5 0.125 0.1875
v -0.5 0.125 0.1875
v -0.5 0.125 0.3125
v -0.4375 0.125 0.3125
v -0.4375 0.125 0.1875
v 0.4375 0.0625 0.3125
v 0.4375 0.0625 0.375
v 0.5 0.0625 0.375
v 0.5 0.0625 0.3125
v -0.5 0.0625 0.3125
v -0.5 0.0625 0.375
v -0.4375 0.0625 0.375
v -0.4375 0.0625 0.3125
v 0.4375 0.0 0.375
v 0.4375 0.0 0.4375
v 0.5 0.0 0.4375
v 0.5 0.0 0.375
v -0.5 0.0 0.375
v -0.5 0.0 0.4375
v -0.4375 0.0 0.4375
v -0.4375 0.0 0.375
v 0.4375 -0.5 -0.125
v 0.4375 -0.5 0.125
v 0.5 -0.5 0.125
v 0.5 -0.5 -0.125
v -0.5 -0.5 -0.125
v -0.5 -0.5 0.125
v -0.4375 -0.5 0.125
v -0.4375 -0.5 -0.125
v 0.4375 -0.5 0.1875
v 0.4375 -0.5 0.4375
v 0.5 -0.5 0.4375
v 0.5 -0.5 0.1875
v -0.5 -0.5 0.1875
v -0.5 -0.5 0.4375
v -0.4375 -0.5 0.4375
v -0.4375 -0.5 0.1875
v 0.4375 0.0625 0.125
v -0.5 0.0625 0.125
v 0.4375 -0.5 0.3125
v -0.5 -0.5 0.3125
v 0.4375 -0.5 0.375
v -0.5 -0.5 0.375
v 0.5 0.0625 0.125
v -0.4375 0.0625 0.125
v 0.5 -0.5 0.3125
v -0.4375 -0.5 0.3125
v 0.5 -0.5 0.375
v -0.4375 -0.5 0.375

vt 0.9375 0.375
vt 0.9375 0.4375
vt 1.0 0.4375
vt 1.0 0.375
vt 0.0 0.375
vt 0.0 0.4375
vt 0.0625 0.4375
vt 0.0625 0.375
vt 0.9375 0.4375
vt 0.9375 0.625
vt 1.0 0.625
vt 1.0 0.4375
vt 0.0 0.4375
vt 0.0 0.625
vt 0.0625 0.625
vt 0.0625 0.4375
vt 0.9375 0.6875
vt 0.9375 0.8125
vt 1.0 0.8125
vt 1.0 0.6875
vt 0.0 0.6875
vt 0.0 0.8125
vt 0.0625 0.8125
vt 0.0625 0.6875
vt 0.9375 0.8125
vt 0.9375 0.875
vt 1.0 0.875
vt 1.0 0.8125
vt 0.0 0.8125
vt 0.0 0.875
vt 0.0625 0.875
vt 0.0625 0.8125
vt 0.9375 0.875
vt 0.9375 0.9375
vt 1.0 0.9375
vt 1.0 0.875
vt 0.0 0.875
vt 0.0 0.9375
vt 0.0625 0.9375
vt 0.0625 0.875
vt 0.9375 0.375
vt 0.9375 0.625
vt 1.0 0.625
vt 1.0 0.375
vt 0.0 0.375
vt 0.0 0.625
vt 0.0625 0.625
vt 0.0625 0.375
vt 0.9375 0.6875
vt 0.9375 0.9375
vt 1.0 0.9375
vt 1.0 0.6875
vt 0.0 0.6875
vt 0.0 0.9375
vt 0.0625 0.9375
vt 0.0625 0.6875
vt 0.0 0.375
vt 0.0 0.625
vt 0.5625 0.625
vt 0.5625 0.375
vt 0.0 0.375
vt 0.0 0.625
vt 0.5625 0.625
vt 0.5625 0.375
vt 0.5625 0.4375
vt 0.5625 0.625
vt 0.625 0.625
vt 0.625 0.4375
vt 0.5625 0.4375
vt 0.5625 0.625
vt 0.625 0.625
vt 0.625 0.4375
vt 0.0 0.6875
vt 0.0 0.8125
vt 0.625 0.8125
vt 0.625 0.6875
vt 0.0 0.6875
vt 0.0 0.8125
vt 0.625 0.8125
vt 0.625 0.6875
vt 0.0 0.8125
vt 0.0 0.875
vt 0.5625 0.875
vt 0.5625 0.8125
vt 0.0 0.8125
vt 0.0 0.875
vt 0.5625 0.875
vt 0.5625 0.8125
vt 0.0 0.875
vt 0.0 0.9375
vt 0.5 0.9375
vt 0.5 0.875
vt 0.0 0.875
vt 0.0 0.9375
vt 0.5 0.9375
vt 0.5 0.875
vt 0.0 0.375
vt 0.0 0.625
vt 0.5625 0.625
vt 0.5625 0.375
vt 0.0 0.375
vt 0.0 0.625
vt 0.5625 0.625
vt 0.5625 0.375
vt 0.5625 0.4375
vt 0.5625 0.625
vt 0.625 0.625
vt 0.625 0.4375
vt 0.5625 0.4375
vt 0.5625 0.625
vt 0.625 0.625
vt 0.625 0.4375
vt 0.0 0.6875
vt 0.0 0.8125
vt 0.625 0.8125
vt 0.625 0.6875
vt 0.0 0.6875
vt 0.0 0.8125
vt 0.625 0.8125
vt 0.625 0.6875
vt 0.0 0.8125
vt 0.0 0.875
vt 0.5625 0.875
vt 0.5625 0.8125
vt 0.0 0.8125
vt 0.0 0.875
vt 0.5625 0.875
vt 0.5625 0.8125
vt 0.0 0.875
vt 0.0 0.9375
vt 0.5 0.9375
vt 0.5 0.875
vt 0.0 0.875
vt 0.0 0.9375
vt 0.5 0.9375
vt 0.5 0.875
vt 0.9375 0.0
vt 0.9375 0.5625
vt 1.0 0.5625
vt 1.0 0.0
vt 0.0 0.0
vt 0.0 0.5625
vt 0.0625 0.5625
vt 0.0625 0.0
vt 0.9375 0.5625
vt 0.9375 0.625
vt 1.0 0.625
vt 1.0 0.5625
vt 0.0 0.5625
vt 0.0 0.625
vt 0.0625 0.625
vt 0.0625 0.5625
vt 0.9375 0.0
vt 0.9375 0.625
vt 1.0 0.625
vt 1.0 0.0
vt 0.0 0.0
vt 0.0 0.625
vt 0.0625 0.625
vt 0.0625 0.0
vt 0.9375 0.0
vt 0.9375 0.625
vt 1.0 0.625
vt 1.0 0.0
vt 0.0 0.0
vt 0.0 0.625
vt 0.0625 0.625
vt 0.0625 0.0
vt 0.9375 0.5625
vt 0.9375 0.625
vt 1.0 0.625
vt 1.0 0.5625
vt 0.0 0.5625
vt 0.0 0.625
vt 0.0625 0.625
vt 0.0625 0.5625
vt 0.9375 0.5
vt 0.9375 0.5625
vt 1.0 0.5625
vt 1.0 0.5
vt 0.0 0.5
vt 0.0 0.5625
vt 0.0625 0.5625
vt 0.0625 0.5
vt 0.9375 0.0
vt 0.9375 0.5
vt 1.0 0.5
vt 1.0 0.0
vt 0.0 0.0
vt 0.0 0.5
vt 0.0625 0.5
vt 0.0625 0.0

vn 0 1 0
vn 0 -1 0
vn -1 0 0
vn 1 0 0
vn 0 0 -1
vn 0 0 1

g node_0_1_0
usemtl default:glass
s 41
f 57/161/7 58/162/7 59/163/7 60/164/7
usemtl default:glass
s 42
f 61/165/7 62/166/7 63/167/7 64/168/7
usemtl default:glass
s 43
f 65/169/7 66/170/7 67/171/7 68/172/7
usemtl default:glass
s 44
f 69/173/7 70/174/7 71/175/7 72/176/7
usemtl default:glass
s 45
f 73/177/7 74/178/7 75/179/7 76/180/7
usemtl default:glass
s 46
f 77/181/7 78/182/7 79/183/7 80/184/7
usemtl default:glass
s 47
f 81/185/7 82/186/7 83/187/7 84/188/7
usemtl default:glass
s 48
f 85/189/7 86/190/7 87/191/7 88/192/7
usemtl default:glass
s 49
f 89/193/7 90/194/7 91/195/7 92/196/7
usemtl default:glass
s 50
f 93/197/7 94/198/7 95/199/7 96/200/7
usemtl default:glass
s 51
f 100/204/8 99/203/8 98/202/8 97/201/8
usemtl default:glass
s 52
f 104/208/8 103/207/8 102/206/8 101/205/8
usemtl default:glass
s 53
f 108/212/8 107/211/8 106/210/8 105/209/8
usemtl default:glass
s 54
f 112/216/8 111/215/8 110/214/8 109/213/8
usemtl default:glass
s 55
f 97/217/9 98/218/9 113/219/9 57/220/9
usemtl default:glass
s 56
f 101/221/9 102/222/9 114/223/9 61/224/9
usemtl default:glass
s 57
f 58/225/9 113/226/9 66/227/9 65/228/9
usemtl default:glass
s 58
f 62/229/9 114/230/9 70/231/9 69/232/9
usemtl default:glass
s 59
f 105/233/9 115/234/9 74/235/9 73/236/9
usemtl default:glass
s 60
f 109/237/9 116/238/9 78/239/9 77/240/9
usemtl default:glass
s 61
f 115/241/9 117/242/9 82/243/9 81/244/9
usemtl default:glass
s 62
f 116/245/9 118/246/9 86/247/9 85/248/9
usemtl default:glass
s 63
f 117/249/9 106/250/9 90/251/9 89/252/9
usemtl default:glass
s 64
f 118/253/9 110/254/9 94/255/9 93/256/9
usemtl default:glass
s 65
f 60/260/10 119/259/10 99/258/10 100/257/10
usemtl default:glass
s 66
f 64/264/10 120/263/10 103/262/10 104/261/10
usemtl default:glass
s 67
f 68/268/10 67/267/10 119/266/10 59/265/10
usemtl default:glass
s 68
f 72/272/10 71/271/10 120/270/10 63/269/10
usemtl default:glass
s 69
f 76/276/10 75/275/10 121/274/10 108/273/10
usemtl default:glass
s 70
f 80/280/10 79/279/10 122/278/10 112/277/10
usemtl default:glass
s 71
f 84/284/10 83/283/10 123/282/10 121/281/10
usemtl default:glass
s 72
f 88/288/10 87/287/10 124/286/10 122/285/10
usemtl default:glass
s 73
f 92/292/10 91/291/10 107/290/10 123/289/10
usemtl default:glass
s 74
f 96/296/10 95/295/10 111/294/10 124/293/10
usemtl default:glass
s 75
f 97/297/11 57/298/11 60/299/11 100/300/11
usemtl default:glass
s 76
f 101/301/11 61/302/11 64/303/11 104/304/11
usemtl default:glass
s 77
f 58/305/11 65/306/11 68/307/11 59/308/11
usemtl default:glass
s 78
f 62/309/11 69/310/11 72/311/11 63/312/11
usemtl default:glass
s 79
f 105/313/11 73/314/11 76/315/11 108/316/11
usemtl default:glass
s 80
f 109/317/11 77/318/11 80/319/11 112/320/11
usemtl default:glass
s 81
f 99/324/12 67/323/12 66/322/12 98/321/12
usemtl default:glass
s 82
f 103/328/12 71/327/12 70/326/12 102/325/12
usemtl default:glass
s 83
f 84/332/12 75/331/12 74/330/12 81/329/12
usemtl default:glass
s 84
f 88/336/12 79/335/12 78/334/12 85/333/12
usemtl default:glass
s 85
f 92/340/12 83/339/12 82/338/12 89/337/12
usemtl default:glass
s 86
f 96/344/12 87/343/12 86/342/12 93/341/12
usemtl default:glass
s 87
f 107/348/12 91/347/12 90/346/12 106/345/12
usemtl default:glass
s 88
f 111/352/12 95/351/12 94/350/12 110/349/12


