# Blender v3.0.0 OBJ File: ''
# www.blender.org
mtllib chair_lift_steel_rope.mtl
o node_0_0_0.001
v -0.062500 0.062500 -0.500000
v -0.062500 0.062500 0.500000
v 0.062500 0.062500 0.500000
v 0.062500 0.062500 -0.500000
v 0.062500 -0.062500 -0.500000
v 0.062500 -0.062500 0.500000
v -0.062500 -0.062500 0.500000
v -0.062500 -0.062500 -0.500000
vt 0.000000 0.562500
vt 1.000000 0.562500
vt 1.000000 0.437500
vt 0.000000 0.437500
vt 0.000000 0.437500
vt 1.000000 0.437500
vt 1.000000 0.562500
vt 0.000000 0.562500
vt 0.000000 0.437500
vt 0.000000 0.562500
vt 1.000000 0.437500
vt 1.000000 0.437500
vt 1.000000 0.562500
vt 0.000000 0.562500
vt 0.437500 0.437500
vt 0.437500 0.562500
vt 0.562500 0.562500
vt 0.562500 0.437500
vt 0.562500 0.437500
vt 0.562500 0.562500
vt 0.437500 0.562500
vt 0.437500 0.437500
vn 0.0000 1.0000 0.0000
vn 0.0000 -1.0000 -0.0000
vn -1.0000 0.0000 0.0000
vn 1.0000 0.0000 0.0000
vn 0.0000 0.0000 -1.0000
vn 0.0000 0.0000 1.0000
g node_0_0_0.001_node_0_0_0.001_wool:grey.001
usemtl wool:grey.001
s 1
f 1/1/1 2/2/1 3/3/1 4/4/1
f 5/5/2 6/6/2 7/7/2 8/8/2
f 8/9/3 7/10/3 2/2/3 1/11/3
f 4/12/4 3/13/4 6/14/4 5/5/4
f 8/15/5 1/16/5 4/17/5 5/18/5
f 6/19/6 3/20/6 2/21/6 7/22/6
